<svg xmlns:xlink="http://www.w3.org/1999/xlink" xmlns="http://www.w3.org/2000/svg" width="18" height="15" viewBox="0 0 18 15" fill="none"><path fill-rule="evenodd" clip-rule="evenodd" d="M13.9092 7.36304C13.4592 7.36304 13.0911 7.73122 13.0911 8.18122V9.81758H11.4547C11.0047 9.81758 10.6365 10.1858 10.6365 10.6358C10.6365 11.0858 11.0047 11.4539 11.4547 11.4539H13.9092C14.3592 11.4539 14.7274 11.0858 14.7274 10.6358V8.18122C14.7274 7.73122 14.3592 7.36304 13.9092 7.36304ZM4.90919 4.90882H6.54555C6.99555 4.90882 7.36374 4.54064 7.36374 4.09064C7.36374 3.64064 6.99555 3.27246 6.54555 3.27246H4.09101C3.64101 3.27246 3.27283 3.64064 3.27283 4.09064V6.54519C3.27283 6.99519 3.64101 7.36337 4.09101 7.36337C4.54101 7.36337 4.90919 6.99519 4.90919 6.54519V4.90882ZM16.3636 0H1.63636C0.736364 0 0 0.736364 0 1.63636V13.0909C0 13.9909 0.736364 14.7273 1.63636 14.7273H16.3636C17.2636 14.7273 18 13.9909 18 13.0909V1.63636C18 0.736364 17.2636 0 16.3636 0ZM15.5453 13.0991H2.45441C2.00441 13.0991 1.63623 12.7309 1.63623 12.2809V2.44636C1.63623 1.99636 2.00441 1.62817 2.45441 1.62817H15.5453C15.9953 1.62817 16.3635 1.99636 16.3635 2.44636V12.2809C16.3635 12.7309 15.9953 13.0991 15.5453 13.0991Z" fill="#FFFFFF"></path></svg>