<svg xmlns="http://www.w3.org/2000/svg" width="144" height="16" viewBox="0 0 144 16" fill="none"><path fill-rule="evenodd" clip-rule="evenodd" d="M5.11977 15.9277C8.36065 15.9277 10.4443 14.2092 10.4443 11.6524C10.4443 8.82308 8.38173 7.81719 5.9616 6.85309C3.2046 5.74242 2.57336 5.21839 2.57336 4.04476C2.57336 2.85031 3.64651 2.07476 5.11977 2.07476C6.40351 2.07476 7.56097 2.51483 8.65537 3.43695C8.78166 3.54172 8.90794 3.52091 9.01315 3.39515L9.30769 3.03886C9.83391 2.38907 9.83391 1.78144 9.13925 1.25742C8.04503 0.440069 6.59285 0 5.11977 0C2.38384 0 0.279344 1.71848 0.279344 4.04476C0.279344 6.60157 2.00517 7.73341 4.99348 8.88605C7.43468 9.82916 8.12916 10.437 8.12916 11.7572C8.12916 13.0146 6.9717 13.8529 5.16174 13.8529C3.8571 13.8529 2.38384 13.2871 1.05813 12.1135C0.931843 11.9877 0.805559 11.9877 0.700352 12.1345L0.363653 12.5745C-0.120407 13.2241 -0.162562 13.8529 0.489937 14.356C1.77368 15.3829 3.39394 15.9277 5.11977 15.9277ZM89.3002 15.9277C92.541 15.9277 94.6245 14.2092 94.6245 11.6524C94.6245 8.82308 92.5619 7.81719 90.142 6.85309C87.385 5.74242 86.7536 5.21839 86.7536 4.04476C86.7536 2.85031 87.8269 2.07476 89.3002 2.07476C90.5837 2.07476 91.7413 2.51483 92.8358 3.43695C92.962 3.54172 93.0881 3.52091 93.1935 3.39515L93.4881 3.03886C94.0141 2.38907 94.0141 1.78144 93.3198 1.25742C92.2254 0.440069 90.7732 0 89.3002 0C86.5642 0 84.4597 1.71848 84.4597 4.04476C84.4597 6.60157 86.1854 7.73341 89.1739 8.88605C91.6151 9.82916 92.3094 10.437 92.3094 11.7572C92.3094 13.0146 91.1521 13.8529 89.3421 13.8529C88.0373 13.8529 86.5642 13.2871 85.2385 12.1135C85.1121 11.9877 84.9858 11.9877 84.8807 12.1345L84.5439 12.5745C84.0598 13.2241 84.0178 13.8529 84.6701 14.356C85.9539 15.3829 87.5745 15.9277 89.3002 15.9277ZM36.3086 15.8021C37.1504 15.8021 37.6134 15.3409 37.6134 14.5025V13.9787C37.6134 13.8319 37.5082 13.7272 37.3609 13.7272H29.5952V8.92803H35.572C35.7193 8.92803 35.8245 8.82308 35.8245 8.67651V7.10461C35.8245 6.95786 35.7193 6.85309 35.572 6.85309H29.5952V2.20052H36.9188C37.0661 2.20052 37.1715 2.09575 37.1715 1.949V1.42516C37.1715 0.586818 36.7084 0.12576 35.8665 0.12576H27.617C27.4696 0.12576 27.3644 0.23053 27.3644 0.377279V15.5506C27.3644 15.6972 27.4696 15.8021 27.617 15.8021H36.3086ZM56.3646 15.8021C56.5118 15.8021 56.6172 15.6972 56.6172 15.5506V4.00296L64.8037 15.5924C64.8878 15.7182 65.0141 15.8021 65.1824 15.8021H66.8449C66.9923 15.8021 67.0975 15.6972 67.0975 15.5506V1.42516C67.0975 0.586818 66.6345 0.12576 65.7927 0.12576H65.1824C65.0352 0.12576 64.93 0.23053 64.93 0.377279V12.0297L56.7433 0.3353C56.6381 0.188551 56.5329 0.12576 56.3646 0.12576H54.702C54.5546 0.12576 54.4494 0.23053 54.4494 0.377279V14.5025C54.4494 15.3409 54.9124 15.8021 55.7542 15.8021H56.3646ZM113.502 15.8021C113.649 15.8021 113.754 15.6972 113.754 15.5506V1.42516C113.754 0.586818 113.291 0.12576 112.45 0.12576H111.734C111.587 0.12576 111.482 0.23053 111.482 0.377279V14.5025C111.482 15.3409 111.945 15.8021 112.786 15.8021H113.502ZM132.022 15.8021C132.169 15.8021 132.253 15.7391 132.316 15.5924L136.904 2.99688L141.597 15.5924C141.66 15.7391 141.744 15.8021 141.892 15.8021H142.481C143.449 15.8021 143.87 15.2363 143.512 14.314L138.146 0.356289C138.083 0.20954 137.998 0.12576 137.83 0.12576H136.104C135.936 0.12576 135.852 0.20954 135.788 0.356289L130.422 14.314C130.064 15.2363 130.485 15.8021 131.453 15.8021H132.022Z" fill="white"></path></svg>