<svg xmlns:xlink="http://www.w3.org/1999/xlink" xmlns="http://www.w3.org/2000/svg" width="18" height="18" viewBox="0 0 18 18" fill="none"><path d="M12.3 18L5.725 15.675L1.25 17.45C0.966667 17.6 0.6875 17.5917 0.4125 17.425C0.1375 17.2583 0 17.0083 0 16.675V2.725C0 2.50833 0.0625 2.31667 0.1875 2.15C0.3125 1.98333 0.475 1.85833 0.675 1.775L5.725 0L12.3 2.3L16.75 0.525C17.0333 0.391667 17.3125 0.404167 17.5875 0.5625C17.8625 0.720833 18 0.966667 18 1.3V15.425C18 15.6083 17.9375 15.7667 17.8125 15.9C17.6875 16.0333 17.5333 16.1333 17.35 16.2L12.3 18ZM11.45 16.125V3.5L6.55 1.85V14.475L11.45 16.125ZM12.95 16.125L16.5 14.95V2.15L12.95 3.5V16.125ZM1.5 15.825L5.05 14.475V1.85L1.5 3.025V15.825Z" fill="#FFFFFF"></path></svg>