<svg xmlns="http://www.w3.org/2000/svg" xmlns:xlink="http://www.w3.org/1999/xlink" id="Camada_1" x="0px" y="0px" viewBox="0 0 27 26" style="enable-background:new 0 0 27 26;" xml:space="preserve"><style type="text/css">  .st0{fill:#B7CAA6;}</style><path class="st0" d="M25.3,21.9l-7-7.2c-0.3-0.3-0.7-0.5-1.1-0.6c1-1.7,1.5-3.6,1.3-5.6c-0.2-2.1-1.1-4.2-2.7-5.8  C14.2,1,11.8,0,9.3,0S4.5,1,2.7,2.7c-3.6,3.6-3.6,9.6,0,13.2c1.5,1.5,3.6,2.5,5.8,2.7c2,0.2,4-0.3,5.7-1.4c0.1,0.3,0.3,0.7,0.5,0.9  l7,7.2c0.5,0.5,1.1,0.7,1.7,0.7c0.6,0,1.2-0.2,1.7-0.7C26.3,24.4,26.3,22.8,25.3,21.9z M9.3,16.8c-2,0-3.9-0.8-5.3-2.2  c-1.4-1.4-2.2-3.3-2.2-5.3S2.6,5.4,4,4c1.4-1.4,3.3-2.2,5.3-2.2s3.9,0.8,5.3,2.2c2.9,2.9,2.9,7.7,0,10.6C13.2,16,11.3,16.8,9.3,16.8  z"></path></svg>