<svg xmlns="http://www.w3.org/2000/svg" width="24" height="16" viewBox="0 0 24 16" fill="none"><path d="M20.0755 5.00991V0.95517H4.06607V5.00991H0V10.1803H1.63096V11.9698H2.07268V13.3459H4.3379V15.0448H5.4705V13.3459H19.3563V15.0448H20.4889V13.3459H21.899V11.9698H22.3407V10.1576H24V5.00991H20.0755ZM19.2883 1.74233V7.58094H16.2246V1.74233H19.2883ZM15.4375 1.74233V7.58094H12.3738V1.74233H15.4375ZM11.5866 1.74233V7.58094H8.38698V1.74233H11.5866ZM7.62246 1.74233V7.58094H4.84757V1.74233H7.62246ZM21.5422 8.37376V11.2053H2.41812V8.37376H21.5422ZM0.787164 9.39311V5.79708H3.87353V7.5866H1.60831V9.39311H0.787164ZM20.1151 7.5866V5.79708H23.2015V9.39311H22.3294V7.5866H20.1151Z" fill="#ffffff"/></svg>