<svg xmlns:xlink="http://www.w3.org/1999/xlink" xmlns="http://www.w3.org/2000/svg" width="20" height="18" viewBox="0 0 20 18" fill="none"><path d="M19.1766 8.32336C19.1298 8.60434 19.0923 8.88999 19.0408 9.16628C18.7645 10.6039 18.0996 11.8402 17.1068 12.9032C16.6104 13.4371 16.0485 13.8913 15.4303 14.2706C15.3741 14.3081 15.3179 14.3409 15.2571 14.383C15.7862 15.4413 15.7019 16.4247 14.8824 17.2723C14.2034 17.9701 13.3465 18.1714 12.4192 17.853C11.375 17.4924 10.8645 16.701 10.7802 15.6005C9.99351 15.5818 9.20212 15.5584 8.40135 15.5397C8.37325 16.3966 8.04077 17.0944 7.32897 17.5767C6.78108 17.9467 6.1723 18.0684 5.52607 17.9373C4.27106 17.6891 3.27359 16.392 3.7091 14.8841C3.49837 14.8185 3.28295 14.7529 3.07222 14.6827C2.31828 14.4251 1.59712 14.102 0.993031 13.5635C0.365526 13.0062 0.0190075 12.3085 0.000276011 11.4609C-0.00908974 11.0582 0.220357 10.8147 0.618402 10.7866C0.786985 10.7772 0.955578 10.7678 1.11948 10.7304C1.79849 10.5852 2.14971 10.1122 2.31361 9.48004C2.44473 8.97897 2.44003 8.47322 2.41662 7.9581C2.37916 7.23694 2.48688 6.52514 2.69293 5.83208C3.29234 3.78566 4.55201 2.25904 6.37365 1.18198C7.83939 0.31565 9.43158 -0.0730283 11.1221 0.0112634C13.9552 0.147067 16.2498 1.33183 17.8982 3.6639C18.6334 4.7035 19.0408 5.87422 19.1485 7.14328C19.1532 7.19948 19.1719 7.25099 19.1813 7.3025C19.1766 7.64903 19.1766 7.9862 19.1766 8.32336ZM1.31615 11.9901C1.4379 12.3319 1.69547 12.6082 2.00454 12.8377C2.68824 13.3434 3.48432 13.5963 4.29914 13.793C4.35066 13.807 4.42558 13.7836 4.46305 13.7508C5.56352 12.833 7.15102 13.0999 7.93306 14.2004C7.97052 14.2519 8.05012 14.3034 8.111 14.3034C9.05694 14.3362 10.0076 14.3596 10.9535 14.3877C11.0706 14.3924 11.1455 14.3502 11.2111 14.2472C11.8948 13.2451 13.117 12.9266 14.2221 13.4417C14.2924 13.4745 14.4141 13.4745 14.475 13.4324C14.9152 13.1374 15.3741 12.8658 15.7722 12.5192C17.1068 11.3438 17.8841 9.86871 17.9638 8.08454C18.0527 6.11305 17.3128 4.44595 15.8565 3.14411C13.9131 1.40676 11.6091 0.844816 9.08036 1.41144C6.64059 1.95934 4.87515 3.37825 3.9573 5.75247C3.69975 6.42212 3.59671 7.12455 3.59203 7.84103C3.59203 8.35615 3.61076 8.87595 3.5452 9.38638C3.43749 10.2246 3.09565 10.9645 2.37917 11.4609C2.06073 11.681 1.68141 11.8121 1.31615 11.9901Z" fill="#FFFFFF"></path><path d="M10.7755 12.0041C9.06161 11.9901 7.59589 10.824 7.20721 9.15694C7.1276 8.82445 7.30086 8.52007 7.62398 8.42641C7.93305 8.33743 8.2468 8.49665 8.34982 8.81977C8.47158 9.20377 8.60739 9.57371 8.86963 9.88746C9.41284 10.5337 10.1106 10.8521 10.9488 10.7819C12.0774 10.6836 12.8173 10.0701 13.1591 8.98367C13.1826 8.91343 13.2013 8.8385 13.2294 8.77294C13.3511 8.48729 13.6649 8.3468 13.9552 8.43577C14.2503 8.52943 14.4235 8.81977 14.3673 9.12416C14.091 10.5805 12.7471 11.8121 11.2626 11.9667C11.0987 11.976 10.9394 11.9901 10.7755 12.0041Z" fill="#FFFFFF"></path><path d="M8.41073 6.60002C8.07824 6.60002 7.80664 6.32373 7.80664 5.99592C7.81132 5.66344 8.07357 5.40588 8.40137 5.40588C8.73386 5.40588 9.01014 5.67749 9.00546 6.00998C9.00546 6.33309 8.73384 6.60002 8.41073 6.60002Z" fill="#FFFFFF"></path><path d="M13.2106 5.40589C13.5384 5.41057 13.8006 5.67749 13.8006 6.00529C13.8006 6.33778 13.5243 6.60938 13.1918 6.6047C12.8594 6.60002 12.5924 6.31905 12.6018 5.98656C12.6159 5.65408 12.8828 5.39652 13.2106 5.40589Z" fill="#FFFFFF"></path></svg>