<svg xmlns="http://www.w3.org/2000/svg" viewBox="0 0 54 54">
  <title>whatsapp</title>
  <g id="Icon_Line" data-name="Icon Line">
    <path fill="#ffffff" d="M27.78,4.13a23.22,23.22,0,0,0-20,35.07L4.89,51l11.64-3.35A23.22,23.22,0,1,0,27.78,4.13Zm.27,42.58a19.15,19.15,0,0,1-10.92-3.4L10.5,45.22l1.69-6.83a19.27,19.27,0,1,1,15.86,8.32Zm2.62-13.5c.54-.56,1.08-1.11,1.61-1.67a3.52,3.52,0,0,1,1.44-1.16,3.53,3.53,0,0,1,2.35.65c.82.4,1.46.79,2.18,1.2a1.87,1.87,0,0,1,1.09,1.45,5.31,5.31,0,0,1-.43,2.25c-1.31,3-6.22,2.27-6.22,2.27A20.6,20.6,0,0,1,16.31,23.31c-1.41-4.38,3.15-6.57,3.15-6.57a2,2,0,0,1,2.35.37,8.8,8.8,0,0,1,1.1,2.3c.16.43.33.85.49,1.27a5.12,5.12,0,0,1,.48,2.11c0,.75-.71,1.26-1.16,1.79l-.81.92C23.75,30.67,30.67,33.21,30.67,33.21Z"/>
  </g>
</svg>
